<mxfile host="app.diagrams.net" agent="Mozilla/5.0 (Windows NT 10.0; Win64; x64) AppleWebKit/537.36 (KHTML, like Gecko) Chrome/138.0.0.0 Safari/537.36" version="28.1.0">
  <diagram name="Page-1" id="NguMBSJkpcVRaZstmfC8">
    <mxGraphModel dx="1678" dy="874" grid="1" gridSize="10" guides="1" tooltips="1" connect="1" arrows="1" fold="1" page="1" pageScale="1" pageWidth="1169" pageHeight="827" math="0" shadow="0">
      <root>
        <mxCell id="0" />
        <mxCell id="1" parent="0" />
        <mxCell id="Bricq4ykQXGUbL0ZgFo0-1" value="" style="fontStyle=1;align=center;verticalAlign=middle;childLayout=stackLayout;horizontal=1;horizontalStack=0;resizeParent=1;resizeParentMax=0;resizeLast=0;marginBottom=0;labelBackgroundColor=none;fillColor=#EFE9FF;" vertex="1" parent="1">
          <mxGeometry x="20" y="20" width="200" height="110" as="geometry" />
        </mxCell>
        <mxCell id="Bricq4ykQXGUbL0ZgFo0-2" value="Company" style="html=1;align=center;spacing=0;verticalAlign=middle;strokeColor=none;fillColor=#EFE9FF;whiteSpace=wrap;fontStyle=1;labelBackgroundColor=none;" vertex="1" parent="Bricq4ykQXGUbL0ZgFo0-1">
          <mxGeometry width="200" height="20" as="geometry" />
        </mxCell>
        <mxCell id="Bricq4ykQXGUbL0ZgFo0-3" value="" style="line;strokeWidth=0.25;fillColor=#EFE9FF;align=left;verticalAlign=middle;spacingTop=-1;spacingLeft=3;spacingRight=3;rotatable=0;labelPosition=right;points=[];portConstraint=eastwest;labelBackgroundColor=none;" vertex="1" parent="Bricq4ykQXGUbL0ZgFo0-1">
          <mxGeometry y="20" width="200" height="8" as="geometry" />
        </mxCell>
        <mxCell id="Bricq4ykQXGUbL0ZgFo0-4" value="&lt;code data-end=&quot;1332&quot; data-start=&quot;1317&quot;&gt;name : String&lt;/code&gt;&lt;br data-end=&quot;1335&quot; data-start=&quot;1332&quot;&gt;&lt;br&gt;&lt;code data-end=&quot;1360&quot; data-start=&quot;1337&quot;&gt;contactEmail : String&lt;/code&gt;" style="html=1;align=center;spacing=0;verticalAlign=middle;strokeColor=none;fillColor=#EFE9FF;whiteSpace=wrap;fontStyle=2;fontSize=10;labelBackgroundColor=none;" vertex="1" parent="Bricq4ykQXGUbL0ZgFo0-1">
          <mxGeometry y="28" width="200" height="42" as="geometry" />
        </mxCell>
        <mxCell id="Bricq4ykQXGUbL0ZgFo0-5" value="" style="html=1;align=left;spacing=0;spacingLeft=8;verticalAlign=middle;strokeColor=none;fillColor=#EFE9FF;whiteSpace=wrap;labelBackgroundColor=none;" vertex="1" parent="Bricq4ykQXGUbL0ZgFo0-1">
          <mxGeometry y="70" width="200" height="40" as="geometry" />
        </mxCell>
        <mxCell id="Bricq4ykQXGUbL0ZgFo0-49" style="edgeStyle=orthogonalEdgeStyle;rounded=0;orthogonalLoop=1;jettySize=auto;html=1;entryX=0;entryY=0.5;entryDx=0;entryDy=0;endArrow=none;endFill=0;" edge="1" parent="1" source="Bricq4ykQXGUbL0ZgFo0-11" target="Bricq4ykQXGUbL0ZgFo0-30">
          <mxGeometry relative="1" as="geometry">
            <Array as="points">
              <mxPoint x="345" y="195" />
              <mxPoint x="345" y="100" />
              <mxPoint x="470" y="100" />
            </Array>
          </mxGeometry>
        </mxCell>
        <mxCell id="Bricq4ykQXGUbL0ZgFo0-55" value="1" style="edgeLabel;html=1;align=center;verticalAlign=middle;resizable=0;points=[];" vertex="1" connectable="0" parent="Bricq4ykQXGUbL0ZgFo0-49">
          <mxGeometry x="0.7179" y="1" relative="1" as="geometry">
            <mxPoint x="16" y="1" as="offset" />
          </mxGeometry>
        </mxCell>
        <mxCell id="Bricq4ykQXGUbL0ZgFo0-56" value="0..*" style="edgeLabel;html=1;align=center;verticalAlign=middle;resizable=0;points=[];" vertex="1" connectable="0" parent="Bricq4ykQXGUbL0ZgFo0-49">
          <mxGeometry x="-0.903" relative="1" as="geometry">
            <mxPoint y="-5" as="offset" />
          </mxGeometry>
        </mxCell>
        <mxCell id="Bricq4ykQXGUbL0ZgFo0-11" value="" style="fontStyle=1;align=center;verticalAlign=middle;childLayout=stackLayout;horizontal=1;horizontalStack=0;resizeParent=1;resizeParentMax=0;resizeLast=0;marginBottom=0;labelBackgroundColor=none;fillColor=#EFE9FF;" vertex="1" parent="1">
          <mxGeometry x="20" y="140" width="200" height="110" as="geometry" />
        </mxCell>
        <mxCell id="Bricq4ykQXGUbL0ZgFo0-12" value="Student" style="html=1;align=center;spacing=0;verticalAlign=middle;strokeColor=none;fillColor=#EFE9FF;whiteSpace=wrap;fontStyle=1;labelBackgroundColor=none;" vertex="1" parent="Bricq4ykQXGUbL0ZgFo0-11">
          <mxGeometry width="200" height="20" as="geometry" />
        </mxCell>
        <mxCell id="Bricq4ykQXGUbL0ZgFo0-13" value="" style="line;strokeWidth=0.25;fillColor=#EFE9FF;align=left;verticalAlign=middle;spacingTop=-1;spacingLeft=3;spacingRight=3;rotatable=0;labelPosition=right;points=[];portConstraint=eastwest;labelBackgroundColor=none;" vertex="1" parent="Bricq4ykQXGUbL0ZgFo0-11">
          <mxGeometry y="20" width="200" height="8" as="geometry" />
        </mxCell>
        <mxCell id="Bricq4ykQXGUbL0ZgFo0-14" value="&lt;div&gt;&lt;font face=&quot;monospace&quot;&gt;studentId : String&lt;/font&gt;&lt;/div&gt;&lt;div&gt;&lt;font face=&quot;monospace&quot;&gt;name&amp;nbsp; &amp;nbsp; &amp;nbsp; : String&lt;/font&gt;&lt;/div&gt;&lt;div&gt;&lt;font face=&quot;monospace&quot;&gt;program&amp;nbsp; &amp;nbsp;: String&lt;/font&gt;&lt;/div&gt;" style="html=1;align=center;spacing=0;verticalAlign=middle;strokeColor=none;fillColor=#EFE9FF;whiteSpace=wrap;fontStyle=2;fontSize=10;labelBackgroundColor=none;" vertex="1" parent="Bricq4ykQXGUbL0ZgFo0-11">
          <mxGeometry y="28" width="200" height="42" as="geometry" />
        </mxCell>
        <mxCell id="Bricq4ykQXGUbL0ZgFo0-15" value="" style="html=1;align=left;spacing=0;spacingLeft=8;verticalAlign=middle;strokeColor=none;fillColor=#EFE9FF;whiteSpace=wrap;labelBackgroundColor=none;" vertex="1" parent="Bricq4ykQXGUbL0ZgFo0-11">
          <mxGeometry y="70" width="200" height="40" as="geometry" />
        </mxCell>
        <mxCell id="Bricq4ykQXGUbL0ZgFo0-16" value="" style="fontStyle=1;align=center;verticalAlign=middle;childLayout=stackLayout;horizontal=1;horizontalStack=0;resizeParent=1;resizeParentMax=0;resizeLast=0;marginBottom=0;labelBackgroundColor=none;fillColor=#EFE9FF;" vertex="1" parent="1">
          <mxGeometry x="20" y="270" width="200" height="110" as="geometry" />
        </mxCell>
        <mxCell id="Bricq4ykQXGUbL0ZgFo0-17" value="Supervisor" style="html=1;align=center;spacing=0;verticalAlign=middle;strokeColor=none;fillColor=#EFE9FF;whiteSpace=wrap;fontStyle=1;labelBackgroundColor=none;" vertex="1" parent="Bricq4ykQXGUbL0ZgFo0-16">
          <mxGeometry width="200" height="20" as="geometry" />
        </mxCell>
        <mxCell id="Bricq4ykQXGUbL0ZgFo0-18" value="" style="line;strokeWidth=0.25;fillColor=#EFE9FF;align=left;verticalAlign=middle;spacingTop=-1;spacingLeft=3;spacingRight=3;rotatable=0;labelPosition=right;points=[];portConstraint=eastwest;labelBackgroundColor=none;" vertex="1" parent="Bricq4ykQXGUbL0ZgFo0-16">
          <mxGeometry y="20" width="200" height="8" as="geometry" />
        </mxCell>
        <mxCell id="Bricq4ykQXGUbL0ZgFo0-19" value="&lt;div&gt;&lt;font face=&quot;monospace&quot;&gt;name&amp;nbsp; : String&lt;/font&gt;&lt;/div&gt;&lt;div&gt;&lt;font face=&quot;monospace&quot;&gt;email : String&lt;/font&gt;&lt;/div&gt;" style="html=1;align=center;spacing=0;verticalAlign=middle;strokeColor=none;fillColor=#EFE9FF;whiteSpace=wrap;fontStyle=2;fontSize=10;labelBackgroundColor=none;" vertex="1" parent="Bricq4ykQXGUbL0ZgFo0-16">
          <mxGeometry y="28" width="200" height="42" as="geometry" />
        </mxCell>
        <mxCell id="Bricq4ykQXGUbL0ZgFo0-20" value="" style="html=1;align=left;spacing=0;spacingLeft=8;verticalAlign=middle;strokeColor=none;fillColor=#EFE9FF;whiteSpace=wrap;labelBackgroundColor=none;" vertex="1" parent="Bricq4ykQXGUbL0ZgFo0-16">
          <mxGeometry y="70" width="200" height="40" as="geometry" />
        </mxCell>
        <mxCell id="Bricq4ykQXGUbL0ZgFo0-22" value="" style="fontStyle=1;align=center;verticalAlign=middle;childLayout=stackLayout;horizontal=1;horizontalStack=0;resizeParent=1;resizeParentMax=0;resizeLast=0;marginBottom=0;labelBackgroundColor=none;fillColor=#EFE9FF;" vertex="1" parent="1">
          <mxGeometry x="20" y="390" width="200" height="110" as="geometry" />
        </mxCell>
        <mxCell id="Bricq4ykQXGUbL0ZgFo0-23" value="User" style="html=1;align=center;spacing=0;verticalAlign=middle;strokeColor=none;fillColor=#EFE9FF;whiteSpace=wrap;fontStyle=1;labelBackgroundColor=none;" vertex="1" parent="Bricq4ykQXGUbL0ZgFo0-22">
          <mxGeometry width="200" height="20" as="geometry" />
        </mxCell>
        <mxCell id="Bricq4ykQXGUbL0ZgFo0-24" value="" style="line;strokeWidth=0.25;fillColor=#EFE9FF;align=left;verticalAlign=middle;spacingTop=-1;spacingLeft=3;spacingRight=3;rotatable=0;labelPosition=right;points=[];portConstraint=eastwest;labelBackgroundColor=none;" vertex="1" parent="Bricq4ykQXGUbL0ZgFo0-22">
          <mxGeometry y="20" width="200" height="8" as="geometry" />
        </mxCell>
        <mxCell id="Bricq4ykQXGUbL0ZgFo0-25" value="&lt;div&gt;&lt;font face=&quot;monospace&quot;&gt;email&amp;nbsp; &amp;nbsp; &amp;nbsp; &amp;nbsp; : String&lt;/font&gt;&lt;/div&gt;&lt;div&gt;&lt;font face=&quot;monospace&quot;&gt;passwordHash : String&lt;/font&gt;&lt;/div&gt;&lt;div&gt;&lt;font face=&quot;monospace&quot;&gt;role&amp;nbsp; &amp;nbsp; &amp;nbsp; &amp;nbsp; &amp;nbsp;: UserRole&lt;/font&gt;&lt;/div&gt;" style="html=1;align=center;spacing=0;verticalAlign=middle;strokeColor=none;fillColor=#EFE9FF;whiteSpace=wrap;fontStyle=2;fontSize=10;labelBackgroundColor=none;" vertex="1" parent="Bricq4ykQXGUbL0ZgFo0-22">
          <mxGeometry y="28" width="200" height="42" as="geometry" />
        </mxCell>
        <mxCell id="Bricq4ykQXGUbL0ZgFo0-26" value="" style="html=1;align=left;spacing=0;spacingLeft=8;verticalAlign=middle;strokeColor=none;fillColor=#EFE9FF;whiteSpace=wrap;labelBackgroundColor=none;" vertex="1" parent="Bricq4ykQXGUbL0ZgFo0-22">
          <mxGeometry y="70" width="200" height="40" as="geometry" />
        </mxCell>
        <mxCell id="Bricq4ykQXGUbL0ZgFo0-27" value="" style="fontStyle=1;align=center;verticalAlign=middle;childLayout=stackLayout;horizontal=1;horizontalStack=0;resizeParent=1;resizeParentMax=0;resizeLast=0;marginBottom=0;labelBackgroundColor=none;fillColor=#EFE9FF;" vertex="1" parent="1">
          <mxGeometry x="470" width="200" height="160" as="geometry" />
        </mxCell>
        <mxCell id="Bricq4ykQXGUbL0ZgFo0-28" value="Internship" style="html=1;align=center;spacing=0;verticalAlign=middle;strokeColor=none;fillColor=#EFE9FF;whiteSpace=wrap;fontStyle=1;labelBackgroundColor=none;" vertex="1" parent="Bricq4ykQXGUbL0ZgFo0-27">
          <mxGeometry width="200" height="20" as="geometry" />
        </mxCell>
        <mxCell id="Bricq4ykQXGUbL0ZgFo0-29" value="" style="line;strokeWidth=0.25;fillColor=#EFE9FF;align=left;verticalAlign=middle;spacingTop=-1;spacingLeft=3;spacingRight=3;rotatable=0;labelPosition=right;points=[];portConstraint=eastwest;labelBackgroundColor=none;" vertex="1" parent="Bricq4ykQXGUbL0ZgFo0-27">
          <mxGeometry y="20" width="200" height="8" as="geometry" />
        </mxCell>
        <mxCell id="Bricq4ykQXGUbL0ZgFo0-30" value="&lt;div&gt;&lt;font face=&quot;monospace&quot;&gt;title&amp;nbsp; &amp;nbsp; &amp;nbsp;: String&lt;/font&gt;&lt;/div&gt;&lt;div&gt;&lt;font face=&quot;monospace&quot;&gt;program&amp;nbsp; &amp;nbsp;: String&lt;/font&gt;&lt;/div&gt;&lt;div&gt;&lt;font face=&quot;monospace&quot;&gt;startDate : Date&lt;/font&gt;&lt;/div&gt;&lt;div&gt;&lt;font face=&quot;monospace&quot;&gt;endDate&amp;nbsp; &amp;nbsp;: Date&lt;/font&gt;&lt;/div&gt;&lt;div&gt;&lt;font face=&quot;monospace&quot;&gt;status :InternshipStatus&lt;/font&gt;&lt;/div&gt;&lt;div&gt;&lt;font face=&quot;monospace&quot;&gt;notes&amp;nbsp; &amp;nbsp; &amp;nbsp;: String&lt;/font&gt;&lt;/div&gt;&lt;div&gt;&lt;font face=&quot;monospace&quot;&gt;createdBy : ObjectId&lt;/font&gt;&lt;/div&gt;" style="html=1;align=center;spacing=0;verticalAlign=middle;strokeColor=none;fillColor=#EFE9FF;whiteSpace=wrap;fontStyle=2;fontSize=10;labelBackgroundColor=none;" vertex="1" parent="Bricq4ykQXGUbL0ZgFo0-27">
          <mxGeometry y="28" width="200" height="92" as="geometry" />
        </mxCell>
        <mxCell id="Bricq4ykQXGUbL0ZgFo0-31" value="" style="html=1;align=left;spacing=0;spacingLeft=8;verticalAlign=middle;strokeColor=none;fillColor=#EFE9FF;whiteSpace=wrap;labelBackgroundColor=none;" vertex="1" parent="Bricq4ykQXGUbL0ZgFo0-27">
          <mxGeometry y="120" width="200" height="40" as="geometry" />
        </mxCell>
        <mxCell id="Bricq4ykQXGUbL0ZgFo0-32" value="" style="fontStyle=1;align=center;verticalAlign=middle;childLayout=stackLayout;horizontal=1;horizontalStack=0;resizeParent=1;resizeParentMax=0;resizeLast=0;marginBottom=0;labelBackgroundColor=none;fillColor=#EFE9FF;" vertex="1" parent="1">
          <mxGeometry x="470" y="290" width="200" height="100" as="geometry" />
        </mxCell>
        <mxCell id="Bricq4ykQXGUbL0ZgFo0-33" value="ProgressLog" style="html=1;align=center;spacing=0;verticalAlign=middle;strokeColor=none;fillColor=#EFE9FF;whiteSpace=wrap;fontStyle=1;labelBackgroundColor=none;" vertex="1" parent="Bricq4ykQXGUbL0ZgFo0-32">
          <mxGeometry width="200" height="20" as="geometry" />
        </mxCell>
        <mxCell id="Bricq4ykQXGUbL0ZgFo0-34" value="" style="line;strokeWidth=0.25;fillColor=#EFE9FF;align=left;verticalAlign=middle;spacingTop=-1;spacingLeft=3;spacingRight=3;rotatable=0;labelPosition=right;points=[];portConstraint=eastwest;labelBackgroundColor=none;" vertex="1" parent="Bricq4ykQXGUbL0ZgFo0-32">
          <mxGeometry y="20" width="200" height="8" as="geometry" />
        </mxCell>
        <mxCell id="Bricq4ykQXGUbL0ZgFo0-35" value="&lt;div&gt;&lt;font face=&quot;monospace&quot;&gt;logDate : Date&lt;/font&gt;&lt;/div&gt;&lt;div&gt;&lt;font face=&quot;monospace&quot;&gt;hours&amp;nbsp; &amp;nbsp;: Integer&lt;/font&gt;&lt;/div&gt;&lt;div&gt;&lt;font face=&quot;monospace&quot;&gt;note&amp;nbsp; &amp;nbsp; : String&lt;/font&gt;&lt;/div&gt;" style="html=1;align=center;spacing=0;verticalAlign=middle;strokeColor=none;fillColor=#EFE9FF;whiteSpace=wrap;fontStyle=2;fontSize=10;labelBackgroundColor=none;" vertex="1" parent="Bricq4ykQXGUbL0ZgFo0-32">
          <mxGeometry y="28" width="200" height="32" as="geometry" />
        </mxCell>
        <mxCell id="Bricq4ykQXGUbL0ZgFo0-36" value="" style="html=1;align=left;spacing=0;spacingLeft=8;verticalAlign=middle;strokeColor=none;fillColor=#EFE9FF;whiteSpace=wrap;labelBackgroundColor=none;" vertex="1" parent="Bricq4ykQXGUbL0ZgFo0-32">
          <mxGeometry y="60" width="200" height="40" as="geometry" />
        </mxCell>
        <mxCell id="Bricq4ykQXGUbL0ZgFo0-37" value="" style="fontStyle=1;align=center;verticalAlign=middle;childLayout=stackLayout;horizontal=1;horizontalStack=0;resizeParent=1;resizeParentMax=0;resizeLast=0;marginBottom=0;labelBackgroundColor=none;fillColor=#EFE9FF;" vertex="1" parent="1">
          <mxGeometry x="470" y="170" width="200" height="110" as="geometry" />
        </mxCell>
        <mxCell id="Bricq4ykQXGUbL0ZgFo0-38" value="Evaluation" style="html=1;align=center;spacing=0;verticalAlign=middle;strokeColor=none;fillColor=#EFE9FF;whiteSpace=wrap;fontStyle=1;labelBackgroundColor=none;" vertex="1" parent="Bricq4ykQXGUbL0ZgFo0-37">
          <mxGeometry width="200" height="20" as="geometry" />
        </mxCell>
        <mxCell id="Bricq4ykQXGUbL0ZgFo0-39" value="" style="line;strokeWidth=0.25;fillColor=#EFE9FF;align=left;verticalAlign=middle;spacingTop=-1;spacingLeft=3;spacingRight=3;rotatable=0;labelPosition=right;points=[];portConstraint=eastwest;labelBackgroundColor=none;" vertex="1" parent="Bricq4ykQXGUbL0ZgFo0-37">
          <mxGeometry y="20" width="200" height="8" as="geometry" />
        </mxCell>
        <mxCell id="Bricq4ykQXGUbL0ZgFo0-40" value="&lt;div&gt;&lt;font face=&quot;monospace&quot;&gt;score&amp;nbsp; &amp;nbsp; : Integer&lt;/font&gt;&lt;/div&gt;&lt;div&gt;&lt;font face=&quot;monospace&quot;&gt;feedback : String&lt;/font&gt;&lt;/div&gt;" style="html=1;align=center;spacing=0;verticalAlign=middle;strokeColor=none;fillColor=#EFE9FF;whiteSpace=wrap;fontStyle=2;fontSize=10;labelBackgroundColor=none;" vertex="1" parent="Bricq4ykQXGUbL0ZgFo0-37">
          <mxGeometry y="28" width="200" height="42" as="geometry" />
        </mxCell>
        <mxCell id="Bricq4ykQXGUbL0ZgFo0-41" value="" style="html=1;align=left;spacing=0;spacingLeft=8;verticalAlign=middle;strokeColor=none;fillColor=#EFE9FF;whiteSpace=wrap;labelBackgroundColor=none;" vertex="1" parent="Bricq4ykQXGUbL0ZgFo0-37">
          <mxGeometry y="70" width="200" height="40" as="geometry" />
        </mxCell>
        <mxCell id="Bricq4ykQXGUbL0ZgFo0-42" value="&amp;lt;&amp;lt;enumeration&amp;gt;&amp;gt; InternshipStatus" style="swimlane;fontStyle=1;align=center;verticalAlign=top;childLayout=stackLayout;horizontal=1;startSize=40;horizontalStack=0;resizeParent=1;resizeParentMax=0;resizeLast=0;collapsible=1;marginBottom=0;whiteSpace=wrap;html=1;fillColor=#E7E7E7;" vertex="1" parent="1">
          <mxGeometry x="395" y="400" width="130" height="124" as="geometry" />
        </mxCell>
        <mxCell id="Bricq4ykQXGUbL0ZgFo0-43" value="&lt;div&gt;planned&lt;/div&gt;&lt;div&gt;in_progress&lt;/div&gt;&lt;div&gt;completed&lt;/div&gt;&lt;div&gt;cancelled&lt;/div&gt;" style="text;strokeColor=none;fillColor=none;align=left;verticalAlign=top;spacingLeft=4;spacingRight=4;overflow=hidden;rotatable=0;points=[[0,0.5],[1,0.5]];portConstraint=eastwest;whiteSpace=wrap;html=1;" vertex="1" parent="Bricq4ykQXGUbL0ZgFo0-42">
          <mxGeometry y="40" width="130" height="84" as="geometry" />
        </mxCell>
        <mxCell id="Bricq4ykQXGUbL0ZgFo0-46" value="&amp;lt;&amp;lt;enumeration&amp;gt;&amp;gt; UserRole" style="swimlane;fontStyle=1;align=center;verticalAlign=top;childLayout=stackLayout;horizontal=1;startSize=40;horizontalStack=0;resizeParent=1;resizeParentMax=0;resizeLast=0;collapsible=1;marginBottom=0;whiteSpace=wrap;html=1;fillColor=#E7E7E7;" vertex="1" parent="1">
          <mxGeometry x="250" y="400" width="130" height="124" as="geometry" />
        </mxCell>
        <mxCell id="Bricq4ykQXGUbL0ZgFo0-47" value="&lt;div&gt;student&lt;/div&gt;&lt;div&gt;coordinator&lt;/div&gt;&lt;div&gt;supervisor&lt;/div&gt;" style="text;strokeColor=none;fillColor=none;align=left;verticalAlign=top;spacingLeft=4;spacingRight=4;overflow=hidden;rotatable=0;points=[[0,0.5],[1,0.5]];portConstraint=eastwest;whiteSpace=wrap;html=1;" vertex="1" parent="Bricq4ykQXGUbL0ZgFo0-46">
          <mxGeometry y="40" width="130" height="84" as="geometry" />
        </mxCell>
        <mxCell id="Bricq4ykQXGUbL0ZgFo0-48" style="edgeStyle=orthogonalEdgeStyle;rounded=0;orthogonalLoop=1;jettySize=auto;html=1;exitX=0;exitY=0.5;exitDx=0;exitDy=0;entryX=1;entryY=0.75;entryDx=0;entryDy=0;endArrow=none;endFill=0;" edge="1" parent="1" source="Bricq4ykQXGUbL0ZgFo0-30" target="Bricq4ykQXGUbL0ZgFo0-4">
          <mxGeometry relative="1" as="geometry" />
        </mxCell>
        <mxCell id="Bricq4ykQXGUbL0ZgFo0-57" value="0..*" style="edgeLabel;html=1;align=center;verticalAlign=middle;resizable=0;points=[];" vertex="1" connectable="0" parent="Bricq4ykQXGUbL0ZgFo0-48">
          <mxGeometry x="0.8967" y="-2" relative="1" as="geometry">
            <mxPoint as="offset" />
          </mxGeometry>
        </mxCell>
        <mxCell id="Bricq4ykQXGUbL0ZgFo0-58" value="1" style="edgeLabel;html=1;align=center;verticalAlign=middle;resizable=0;points=[];" vertex="1" connectable="0" parent="Bricq4ykQXGUbL0ZgFo0-48">
          <mxGeometry x="-0.8654" relative="1" as="geometry">
            <mxPoint x="7" y="-4" as="offset" />
          </mxGeometry>
        </mxCell>
        <mxCell id="Bricq4ykQXGUbL0ZgFo0-51" style="edgeStyle=orthogonalEdgeStyle;rounded=0;orthogonalLoop=1;jettySize=auto;html=1;entryX=1;entryY=0.5;entryDx=0;entryDy=0;endArrow=diamond;endFill=1;startArrow=none;startFill=0;" edge="1" parent="1" source="Bricq4ykQXGUbL0ZgFo0-40" target="Bricq4ykQXGUbL0ZgFo0-30">
          <mxGeometry relative="1" as="geometry">
            <Array as="points">
              <mxPoint x="690" y="219" />
              <mxPoint x="690" y="74" />
            </Array>
          </mxGeometry>
        </mxCell>
        <mxCell id="Bricq4ykQXGUbL0ZgFo0-62" value="1" style="edgeLabel;html=1;align=center;verticalAlign=middle;resizable=0;points=[];labelBackgroundColor=none;" vertex="1" connectable="0" parent="Bricq4ykQXGUbL0ZgFo0-51">
          <mxGeometry x="0.9005" y="-1" relative="1" as="geometry">
            <mxPoint y="7" as="offset" />
          </mxGeometry>
        </mxCell>
        <mxCell id="Bricq4ykQXGUbL0ZgFo0-63" value="0..*" style="edgeLabel;html=1;align=center;verticalAlign=middle;resizable=0;points=[];" vertex="1" connectable="0" parent="Bricq4ykQXGUbL0ZgFo0-51">
          <mxGeometry x="-0.9222" relative="1" as="geometry">
            <mxPoint x="3" as="offset" />
          </mxGeometry>
        </mxCell>
        <mxCell id="Bricq4ykQXGUbL0ZgFo0-54" style="edgeStyle=orthogonalEdgeStyle;rounded=0;orthogonalLoop=1;jettySize=auto;html=1;exitX=1;exitY=0.688;exitDx=0;exitDy=0;exitPerimeter=0;endArrow=diamond;endFill=1;" edge="1" parent="1" source="Bricq4ykQXGUbL0ZgFo0-35">
          <mxGeometry relative="1" as="geometry">
            <mxPoint x="670" y="60" as="targetPoint" />
            <Array as="points">
              <mxPoint x="700" y="340" />
              <mxPoint x="700" y="60" />
              <mxPoint x="670" y="60" />
            </Array>
          </mxGeometry>
        </mxCell>
        <mxCell id="Bricq4ykQXGUbL0ZgFo0-64" value="1" style="edgeLabel;html=1;align=center;verticalAlign=middle;resizable=0;points=[];" vertex="1" connectable="0" parent="Bricq4ykQXGUbL0ZgFo0-54">
          <mxGeometry x="0.8918" relative="1" as="geometry">
            <mxPoint as="offset" />
          </mxGeometry>
        </mxCell>
        <mxCell id="Bricq4ykQXGUbL0ZgFo0-65" value="0..*" style="edgeLabel;html=1;align=center;verticalAlign=middle;resizable=0;points=[];" vertex="1" connectable="0" parent="Bricq4ykQXGUbL0ZgFo0-54">
          <mxGeometry x="-0.9224" relative="1" as="geometry">
            <mxPoint as="offset" />
          </mxGeometry>
        </mxCell>
        <mxCell id="Bricq4ykQXGUbL0ZgFo0-59" style="edgeStyle=orthogonalEdgeStyle;rounded=0;orthogonalLoop=1;jettySize=auto;html=1;entryX=-0.004;entryY=0.405;entryDx=0;entryDy=0;entryPerimeter=0;startArrow=none;startFill=0;endArrow=none;endFill=0;" edge="1" parent="1" source="Bricq4ykQXGUbL0ZgFo0-19" target="Bricq4ykQXGUbL0ZgFo0-31">
          <mxGeometry relative="1" as="geometry">
            <Array as="points">
              <mxPoint x="360" y="319" />
              <mxPoint x="360" y="136" />
            </Array>
          </mxGeometry>
        </mxCell>
        <mxCell id="Bricq4ykQXGUbL0ZgFo0-60" value="1" style="edgeLabel;html=1;align=center;verticalAlign=middle;resizable=0;points=[];" vertex="1" connectable="0" parent="Bricq4ykQXGUbL0ZgFo0-59">
          <mxGeometry x="0.95" relative="1" as="geometry">
            <mxPoint as="offset" />
          </mxGeometry>
        </mxCell>
        <mxCell id="Bricq4ykQXGUbL0ZgFo0-61" value="0..*" style="edgeLabel;html=1;align=center;verticalAlign=middle;resizable=0;points=[];" vertex="1" connectable="0" parent="Bricq4ykQXGUbL0ZgFo0-59">
          <mxGeometry x="-0.9556" relative="1" as="geometry">
            <mxPoint x="10" as="offset" />
          </mxGeometry>
        </mxCell>
        <mxCell id="Bricq4ykQXGUbL0ZgFo0-66" style="edgeStyle=orthogonalEdgeStyle;rounded=0;orthogonalLoop=1;jettySize=auto;html=1;exitX=0;exitY=0.5;exitDx=0;exitDy=0;entryX=0;entryY=0.25;entryDx=0;entryDy=0;endArrow=none;endFill=0;" edge="1" parent="1" source="Bricq4ykQXGUbL0ZgFo0-25" target="Bricq4ykQXGUbL0ZgFo0-14">
          <mxGeometry relative="1" as="geometry" />
        </mxCell>
        <mxCell id="Bricq4ykQXGUbL0ZgFo0-67" value="1" style="edgeLabel;html=1;align=center;verticalAlign=middle;resizable=0;points=[];" vertex="1" connectable="0" parent="Bricq4ykQXGUbL0ZgFo0-66">
          <mxGeometry x="-0.9281" relative="1" as="geometry">
            <mxPoint as="offset" />
          </mxGeometry>
        </mxCell>
        <mxCell id="Bricq4ykQXGUbL0ZgFo0-68" value="1" style="edgeLabel;html=1;align=center;verticalAlign=middle;resizable=0;points=[];" vertex="1" connectable="0" parent="Bricq4ykQXGUbL0ZgFo0-66">
          <mxGeometry x="0.9388" relative="1" as="geometry">
            <mxPoint as="offset" />
          </mxGeometry>
        </mxCell>
      </root>
    </mxGraphModel>
  </diagram>
</mxfile>
